<?xml version="1.0" encoding="UTF-8"?>
<svg width="264px" height="288px" viewBox="0 0 264 288" version="1.1" xmlns="http://www.w3.org/2000/svg" xmlns:xlink="http://www.w3.org/1999/xlink">
    <!-- Generator: Sketch 50.2 (55047) - http://www.bohemiancoding.com/sketch -->
    <title>primereact-logo-black</title>
    <desc>Created with Sketch.</desc>
    <defs>
        <polygon id="path-1" points="1.93265008e-05 0.363829788 263.780809 0.363829788 263.780809 287.616983 1.93265008e-05 287.616983"></polygon>
    </defs>
    <g id="Page-1" stroke="none" stroke-width="1" fill="none" fill-rule="evenodd">
        <g id="PrimeReact-Logo-Black" transform="translate(-50.000000, -55.000000)">
            <g id="primereact-logo" transform="translate(50.000000, 55.000000)">
                <g id="primereact-logo-black">
                    <g id="base" transform="translate(0.000000, 0.019149)">
                        <mask id="mask-2" fill="white">
                            <use xlink:href="#path-1"></use>
                        </mask>
                        <g id="path-1"></g>
                        <path d="M250.881674,212.576898 C245.276989,222.19426 235.239577,227.93626 224.03098,227.93626 L189.716391,227.93626 L233.72322,152.413238 L250.880901,181.857791 C256.485586,191.475536 256.485586,202.959153 250.881674,212.576898 Z M183.878242,220.750047 L183.395852,221.578047 L182.38469,223.313324 L177.010377,232.536983 L176.085024,234.124813 L164.917012,253.291366 L161.549563,259.070132 L159.177814,263.140047 L159.088526,263.160728 L159.035185,263.251876 C153.355513,272.999834 142.994576,275.807451 131.635232,275.807068 C120.291735,275.807068 110.320034,273.015536 104.63611,263.293238 L104.45676,263.248047 L98.6920515,253.355324 L97.2479754,250.877451 L35.0695977,144.170387 L46.3477704,124.816175 L46.3493166,124.822685 L66.2424702,90.7004298 L66.2285553,90.697749 L68.4866634,86.8231533 L68.5013517,86.8258341 L84.1144587,60.0445149 L179.903554,60.0111957 L228.711085,143.811153 L183.457311,221.472728 L183.878242,220.750047 Z M158.388907,264.448302 C158.597246,264.119324 158.800948,263.786515 158.998464,263.447962 C158.800948,263.786515 158.597246,264.119324 158.388907,264.448302 Z M157.743015,265.427579 C157.894148,265.206983 158.042189,264.98294 158.187911,264.757366 C158.042189,264.98294 157.894148,265.206983 157.743015,265.427579 Z M157.054991,266.392302 C157.206898,266.187026 157.356485,265.979451 157.504139,265.770345 C157.356485,265.979451 157.206898,266.187026 157.054991,266.392302 Z M156.300098,267.370813 C156.473264,267.155196 156.644497,266.937664 156.812637,266.716685 C156.644497,266.937664 156.473264,267.155196 156.300098,267.370813 Z M154.564192,269.359621 C155.095284,268.802004 155.607437,268.222174 156.099489,267.622047 C155.607437,268.222174 155.095284,268.802004 154.564192,269.359621 Z M153.750546,270.181494 C153.965844,269.971621 154.177662,269.757919 154.387161,269.54077 C154.177662,269.757919 153.965844,269.971621 153.750546,270.181494 Z M152.889358,270.989196 C153.103882,270.795791 153.315314,270.598557 153.524426,270.398643 C153.315314,270.598557 153.103882,270.795791 152.889358,270.989196 Z M151.936174,271.816813 C152.184713,271.610004 152.43016,271.399366 152.672901,271.184132 C152.43016,271.399366 152.184713,271.610004 151.936174,271.816813 Z M149.928924,273.354472 C150.572883,272.90294 151.199835,272.425366 151.809393,271.923664 C151.199835,272.425366 150.572497,272.902557 149.928924,273.354472 Z M148.971103,273.999409 C149.268731,273.806387 149.56404,273.608387 149.855483,273.405025 C149.56404,273.608387 149.268731,273.806387 148.971103,273.999409 Z M147.9611,274.625579 C148.247905,274.455153 148.530845,274.280515 148.811852,274.101281 C148.530845,274.280515 148.247905,274.455153 147.9611,274.625579 Z M146.841709,275.26094 C147.168327,275.08477 147.491466,274.902089 147.811126,274.71443 C147.491466,274.902089 147.168327,275.08477 146.841709,275.26094 Z M144.64158,276.336728 C145.379852,276.011962 146.103823,275.658089 146.812333,275.277026 C146.103823,275.658089 145.379852,276.011579 144.64158,276.336728 Z M116.758464,275.277026 C117.467747,275.658089 118.191718,276.011962 118.92999,276.337111 C118.191718,276.011579 117.467747,275.658089 116.758464,275.277026 Z M115.760057,274.71443 C116.080491,274.902089 116.40363,275.085153 116.730634,275.261324 C116.40363,275.085153 116.080491,274.902089 115.760057,274.71443 Z M114.760491,274.101664 C115.040725,274.280515 115.323665,274.455153 115.609697,274.625579 C115.323665,274.455153 115.040725,274.280515 114.760491,274.101664 Z M113.716087,273.405025 C114.00753,273.608387 114.302066,273.806387 114.600081,273.999409 C114.302066,273.806387 114.00753,273.608387 113.716087,273.405025 Z M111.762564,271.924047 C112.371735,272.425366 112.998687,272.90294 113.642259,273.354472 C112.998687,272.902557 112.371735,272.425366 111.762564,271.924047 Z M110.898669,271.184132 C111.140637,271.398983 111.386084,271.609621 111.634236,271.81643 C111.386084,271.609621 111.140637,271.398983 110.898669,271.184132 Z M110.047144,270.398643 C110.256256,270.59894 110.467688,270.795791 110.681826,270.989196 C110.467688,270.795791 110.256256,270.59894 110.047144,270.398643 Z M109.185955,269.542685 C109.394681,269.759068 109.605727,269.972004 109.820251,270.181111 C109.605727,269.972004 109.394681,269.759068 109.185955,269.542685 Z M107.471694,267.622047 C107.963747,268.222174 108.475513,268.801238 109.006218,269.358855 C108.475513,268.801238 107.963747,268.222174 107.471694,267.622047 Z M106.759319,266.717068 C106.927073,266.937664 107.09792,267.155196 107.270699,267.370047 C107.09792,267.155196 106.927073,266.937664 106.759319,266.717068 Z M106.067817,265.771111 C106.215085,265.980217 106.364672,266.187026 106.516192,266.391919 C106.364672,266.187026 106.215085,265.980217 106.067817,265.771111 Z M105.383659,264.757749 C105.529381,264.98294 105.677035,265.2066 105.828169,265.426813 C105.677035,265.2066 105.529381,264.98294 105.383659,264.757749 Z M104.573106,263.447962 C104.770622,263.786515 104.97471,264.119324 105.182663,264.448302 C104.97471,264.119324 104.770622,263.786515 104.573106,263.447962 Z M39.4621248,227.93626 C28.357504,227.93626 18.4132463,222.247877 12.8607426,212.718983 C7.30862547,203.190472 7.30862547,191.81294 12.8607426,182.284047 L30.0570765,152.773238 L73.8547923,227.93626 L39.4621248,227.93626 Z M12.8997821,106.123366 C7.29548346,96.5056212 7.29548346,85.0216212 12.8997821,75.4042596 C18.5036943,65.7865149 28.5411057,60.0445149 39.749703,60.0445149 L74.0646783,60.0445149 L30.0570765,135.567919 L12.8997821,106.123366 Z M104.782991,24.5331957 C110.462663,14.7856213 120.635747,8.96625957 131.995478,8.96664255 C143.354822,8.96664255 153.527905,14.7856213 159.207191,24.5331957 L174.887167,51.4420467 L89.103015,51.4420467 L104.782991,24.5331957 Z M224.318558,60.0445149 C235.423565,60.0445149 245.36821,65.7332808 250.920327,75.2621745 C256.47283,84.790302 256.472444,96.1678341 250.920327,105.696728 L233.723606,135.208302 L189.925891,60.0445149 L224.318558,60.0445149 Z M238.736514,143.810387 L258.439108,109.997962 C265.561311,97.7759616 265.561311,83.1825573 258.439495,70.9605573 C251.31768,58.7389404 238.562189,51.4420467 224.318558,51.4420467 L184.912983,51.4420467 L166.726745,20.2319617 C159.477375,7.79128086 146.494605,0.36379149 131.995477,0.36379149 C117.497896,0.36379149 104.512421,7.79204682 97.2638232,20.2319617 L79.0775859,51.4420467 L39.749703,51.4420467 C25.402482,51.4420467 12.5538378,58.7917914 5.38022724,71.1030255 C-1.79338331,83.4138765 -1.79338331,98.113749 5.38022724,110.4246 L25.0441687,144.170387 L5.34157422,177.983196 C-1.78024129,190.204813 -1.78024129,204.798217 5.34157422,217.0206 C12.4633898,229.242217 25.2188802,236.538728 39.4621248,236.538728 L78.8677002,236.538728 L97.0539372,267.749196 C104.303308,280.189876 117.287237,287.616983 131.785978,287.616983 C146.284719,287.616983 159.268262,280.189876 166.51686,267.749196 L184.703483,236.538728 L224.03098,236.538728 C238.378201,236.538728 251.227231,229.188983 258.400842,216.877749 C265.574066,204.567281 265.574066,189.867791 258.400069,177.55694 L238.736514,143.810387 Z" id="bg-base" fill="#000000" fill-rule="nonzero" mask="url(#mask-2)"></path>
                    </g>
                    <g id="prime-logo-2018" transform="translate(39.000000, 60.000000)">
                        <polygon id="chick-right" fill="#000000" fill-rule="nonzero" points="139.695652 97.5572519 124.904348 94.3053435 136.408696 110.564885 136.408696 160.969466 172.852174 128.450382 175.852174 73.1679389 157.773913 79.6717557"></polygon>
                        <polygon id="chick-left" fill="#000000" fill-rule="nonzero" transform="translate(36.978261, 117.068702) scale(-1, 1) translate(-36.978261, -117.068702) " points="26.2956522 97.5572519 11.5043478 94.3053435 23.0086957 110.564885 23.0086957 160.969466 59.4521739 128.450382 62.4521739 73.1679389 44.373913 79.6717557"></polygon>
                        <path d="M55.8782609,169.113321 L55.8782609,162.611759 L78.3223604,178.658777 L78.2883533,172.128391 L55.8782609,156.105688 L55.8782609,149.604126 L78.3223604,165.651144 L78.2883533,159.120758 L55.8782609,143.098054 L55.8782609,113.816794 L69.026087,94.3053435 L77.2434783,99.1832061 L110.113043,99.1832061 L118.330435,94.3053435 L131.478261,113.816794 L131.478261,142.756367 L108.590269,159.120758 L108.556262,165.651144 L131.478261,149.262439 L131.478261,155.764 L108.590269,172.128391 L108.556262,178.658777 L131.478261,162.270072 L131.478261,168.771634 L108.590269,185.136025 L108.556262,191.666411 L131.478261,175.277706 L131.478261,186.984733 L116.113043,216 L68.2434783,216 L55.8782609,186.984733 L55.8782609,175.619393 L78.3223604,191.666411 L78.2883533,185.136025 L55.8782609,169.113321 Z" id="mask" fill="#000000"></path>
                        <g id="mask-effect-right" transform="translate(105.182609, 141.458015)"></g>
                        <g id="mask-effect-left" transform="translate(52.591304, 141.458015)"></g>
                        <polygon id="bottom-chick-right" fill="#000000" fill-rule="nonzero" points="136.408696 191.862595 157.773913 170.725191 157.773913 149.587786 136.408696 167.473282"></polygon>
                        <polygon id="bottom-chick-left" fill="#000000" fill-rule="nonzero" transform="translate(40.265217, 170.725191) scale(-1, 1) translate(-40.265217, -170.725191) " points="29.5826087 191.862595 50.9478261 170.725191 50.9478261 149.587786 29.5826087 167.473282"></polygon>
                        <path d="M83.8173913,0 L90.3913043,0 L90.3913043,92.6793893 L80.5304348,92.6793893 L59.1652174,30.8931298 L72.3130435,0 L77.2434783,0 L77.2434783,37.3969466 L83.8173913,40.648855 L83.8173913,0 Z M96.9652174,0 L103.53913,0 L103.53913,40.648855 L110.113043,37.3969466 L110.113043,1.91846539e-13 L115.043478,0 L128.191304,30.8931298 L108.469565,92.6793893 L96.9652174,92.6793893 L96.9652174,0 Z" id="head" fill="#000000"></path>
                        <polygon id="head-left" fill="#000000" fill-rule="nonzero" points="80.5304348 92.6793893 9.86086957 66.6641221 0 26.0152672 60.8086957 30.8931298 82.173913 92.6793893"></polygon>
                        <polygon id="head-right" fill="#000000" fill-rule="nonzero" transform="translate(147.913043, 59.347328) scale(-1, 1) translate(-147.913043, -59.347328) " points="187.356522 92.6793893 116.686957 66.6641221 106.826087 26.0152672 169.278261 30.8931298 189 92.6793893"></polygon>
                        <polygon id="ear-right" fill="#000000" fill-rule="nonzero" points="131.478261 26.0152672 162.991304 22.7633588 142.982609 0 119.973913 0"></polygon>
                        <polygon id="ear-left" fill="#000000" fill-rule="nonzero" transform="translate(45.873913, 13.007634) scale(-1, 1) translate(-45.873913, -13.007634) " points="35.8695652 26.0152672 67.3826087 22.7633588 47.373913 0 24.3652174 0"></polygon>
                    </g>
                </g>
            </g>
        </g>
    </g>
</svg>